<mxfile host="app.diagrams.net" modified="2023-04-25T18:11:47.285Z" agent="Mozilla/5.0 (X11; Linux x86_64) AppleWebKit/537.36 (KHTML, like Gecko) Chrome/112.0.0.0 Safari/537.36" etag="wqSmB2RpGrfEIVCtVCmR" version="21.2.1" type="device">
  <diagram id="AkjhidFOBEJGm5CPwwXi" name="Página-1">
    <mxGraphModel dx="2327" dy="2006" grid="1" gridSize="10" guides="1" tooltips="1" connect="1" arrows="1" fold="1" page="1" pageScale="1" pageWidth="827" pageHeight="1169" math="0" shadow="0">
      <root>
        <mxCell id="0" />
        <mxCell id="1" parent="0" />
        <mxCell id="WjwwnHzcMkBrjSKsb_c8-113" value="Usuário" style="whiteSpace=wrap;html=1;align=center;" parent="1" vertex="1">
          <mxGeometry x="240" y="-470" width="100" height="40" as="geometry" />
        </mxCell>
        <mxCell id="WjwwnHzcMkBrjSKsb_c8-114" value="" style="triangle;whiteSpace=wrap;html=1;direction=south;rotation=-180;" parent="1" vertex="1">
          <mxGeometry x="270" y="-390" width="40" height="40" as="geometry" />
        </mxCell>
        <mxCell id="WjwwnHzcMkBrjSKsb_c8-115" value="Administrador" style="whiteSpace=wrap;html=1;align=center;" parent="1" vertex="1">
          <mxGeometry x="80" y="-440" width="100" height="40" as="geometry" />
        </mxCell>
        <mxCell id="WjwwnHzcMkBrjSKsb_c8-116" value="Chefe" style="whiteSpace=wrap;html=1;align=center;" parent="1" vertex="1">
          <mxGeometry x="240" y="-310" width="100" height="40" as="geometry" />
        </mxCell>
        <mxCell id="WjwwnHzcMkBrjSKsb_c8-117" value="CPF" style="ellipse;whiteSpace=wrap;html=1;align=center;fontStyle=4;" parent="1" vertex="1">
          <mxGeometry x="165" y="-531" width="100" height="40" as="geometry" />
        </mxCell>
        <mxCell id="WjwwnHzcMkBrjSKsb_c8-118" value="Nome" style="ellipse;whiteSpace=wrap;html=1;align=center;" parent="1" vertex="1">
          <mxGeometry x="230" y="-570" width="100" height="40" as="geometry" />
        </mxCell>
        <mxCell id="WjwwnHzcMkBrjSKsb_c8-119" value="Cliente" style="whiteSpace=wrap;html=1;align=center;" parent="1" vertex="1">
          <mxGeometry x="455" y="-440" width="100" height="40" as="geometry" />
        </mxCell>
        <mxCell id="WjwwnHzcMkBrjSKsb_c8-121" value="Telefones" style="ellipse;shape=doubleEllipse;margin=3;whiteSpace=wrap;html=1;align=center;" parent="1" vertex="1">
          <mxGeometry x="240" y="-220" width="100" height="40" as="geometry" />
        </mxCell>
        <mxCell id="WjwwnHzcMkBrjSKsb_c8-123" value="Prato" style="whiteSpace=wrap;html=1;align=center;" parent="1" vertex="1">
          <mxGeometry x="395" y="-180" width="100" height="40" as="geometry" />
        </mxCell>
        <mxCell id="WjwwnHzcMkBrjSKsb_c8-124" value="Telefones" style="ellipse;shape=doubleEllipse;margin=3;whiteSpace=wrap;html=1;align=center;" parent="1" vertex="1">
          <mxGeometry x="350" y="-491" width="100" height="40" as="geometry" />
        </mxCell>
        <mxCell id="WjwwnHzcMkBrjSKsb_c8-125" value="Endereços" style="ellipse;shape=doubleEllipse;margin=3;whiteSpace=wrap;html=1;align=center;" parent="1" vertex="1">
          <mxGeometry x="400" y="-390" width="90" height="40" as="geometry" />
        </mxCell>
        <mxCell id="WjwwnHzcMkBrjSKsb_c8-127" value="Pedido" style="whiteSpace=wrap;html=1;align=center;" parent="1" vertex="1">
          <mxGeometry x="640" y="-290" width="100" height="40" as="geometry" />
        </mxCell>
        <mxCell id="WjwwnHzcMkBrjSKsb_c8-130" value="" style="endArrow=none;html=1;rounded=0;entryX=0.5;entryY=0;entryDx=0;entryDy=0;" parent="1" source="WjwwnHzcMkBrjSKsb_c8-124" target="WjwwnHzcMkBrjSKsb_c8-119" edge="1">
          <mxGeometry relative="1" as="geometry">
            <mxPoint x="510" y="-250" as="sourcePoint" />
            <mxPoint x="495" y="-300" as="targetPoint" />
          </mxGeometry>
        </mxCell>
        <mxCell id="WjwwnHzcMkBrjSKsb_c8-131" value="" style="endArrow=none;html=1;rounded=0;entryX=0.25;entryY=1;entryDx=0;entryDy=0;" parent="1" source="WjwwnHzcMkBrjSKsb_c8-125" target="WjwwnHzcMkBrjSKsb_c8-119" edge="1">
          <mxGeometry relative="1" as="geometry">
            <mxPoint x="561" y="-274" as="sourcePoint" />
            <mxPoint x="490" y="-280" as="targetPoint" />
            <Array as="points">
              <mxPoint x="500" y="-400" />
            </Array>
          </mxGeometry>
        </mxCell>
        <mxCell id="WjwwnHzcMkBrjSKsb_c8-132" value="" style="endArrow=none;html=1;rounded=0;entryX=0.5;entryY=1;entryDx=0;entryDy=0;" parent="1" source="WjwwnHzcMkBrjSKsb_c8-121" target="WjwwnHzcMkBrjSKsb_c8-116" edge="1">
          <mxGeometry relative="1" as="geometry">
            <mxPoint x="366" y="-134" as="sourcePoint" />
            <mxPoint x="295" y="-140" as="targetPoint" />
          </mxGeometry>
        </mxCell>
        <mxCell id="WjwwnHzcMkBrjSKsb_c8-134" value="" style="endArrow=none;html=1;rounded=0;exitX=0.5;exitY=1;exitDx=0;exitDy=0;entryX=0.5;entryY=0;entryDx=0;entryDy=0;" parent="1" source="WjwwnHzcMkBrjSKsb_c8-117" target="WjwwnHzcMkBrjSKsb_c8-113" edge="1">
          <mxGeometry relative="1" as="geometry">
            <mxPoint x="523" y="-430" as="sourcePoint" />
            <mxPoint x="500" y="-370" as="targetPoint" />
          </mxGeometry>
        </mxCell>
        <mxCell id="WjwwnHzcMkBrjSKsb_c8-135" value="" style="endArrow=none;html=1;rounded=0;exitX=0.5;exitY=1;exitDx=0;exitDy=0;" parent="1" source="WjwwnHzcMkBrjSKsb_c8-118" edge="1">
          <mxGeometry relative="1" as="geometry">
            <mxPoint x="200" y="-480" as="sourcePoint" />
            <mxPoint x="290" y="-470" as="targetPoint" />
          </mxGeometry>
        </mxCell>
        <mxCell id="WjwwnHzcMkBrjSKsb_c8-136" value="" style="endArrow=none;html=1;rounded=0;exitX=0;exitY=1;exitDx=0;exitDy=0;" parent="1" source="i0df7u659DcUU07UK3Iy-8" edge="1">
          <mxGeometry relative="1" as="geometry">
            <mxPoint x="367.39519075316593" y="-496.8189328413159" as="sourcePoint" />
            <mxPoint x="290" y="-470" as="targetPoint" />
          </mxGeometry>
        </mxCell>
        <mxCell id="WjwwnHzcMkBrjSKsb_c8-138" value="Código" style="ellipse;whiteSpace=wrap;html=1;align=center;fontStyle=4;" parent="1" vertex="1">
          <mxGeometry x="330" y="-255" width="100" height="40" as="geometry" />
        </mxCell>
        <mxCell id="WjwwnHzcMkBrjSKsb_c8-139" value="Nome" style="ellipse;whiteSpace=wrap;html=1;align=center;" parent="1" vertex="1">
          <mxGeometry x="500" y="-240" width="100" height="40" as="geometry" />
        </mxCell>
        <mxCell id="WjwwnHzcMkBrjSKsb_c8-140" value="Descrição" style="ellipse;whiteSpace=wrap;html=1;align=center;" parent="1" vertex="1">
          <mxGeometry x="295" y="-130" width="100" height="40" as="geometry" />
        </mxCell>
        <mxCell id="WjwwnHzcMkBrjSKsb_c8-143" value="" style="endArrow=none;html=1;rounded=0;exitX=1;exitY=0.5;exitDx=0;exitDy=0;" parent="1" source="WjwwnHzcMkBrjSKsb_c8-115" edge="1">
          <mxGeometry relative="1" as="geometry">
            <mxPoint x="190" y="-494" as="sourcePoint" />
            <mxPoint x="270" y="-350" as="targetPoint" />
          </mxGeometry>
        </mxCell>
        <mxCell id="WjwwnHzcMkBrjSKsb_c8-144" value="" style="endArrow=none;html=1;rounded=0;exitX=1;exitY=0.5;exitDx=0;exitDy=0;entryX=0.5;entryY=1;entryDx=0;entryDy=0;" parent="1" source="WjwwnHzcMkBrjSKsb_c8-114" target="WjwwnHzcMkBrjSKsb_c8-113" edge="1">
          <mxGeometry relative="1" as="geometry">
            <mxPoint x="170" y="-360" as="sourcePoint" />
            <mxPoint x="280" y="-340" as="targetPoint" />
          </mxGeometry>
        </mxCell>
        <mxCell id="WjwwnHzcMkBrjSKsb_c8-145" value="" style="endArrow=none;html=1;rounded=0;exitX=0;exitY=0.5;exitDx=0;exitDy=0;entryX=0.5;entryY=0;entryDx=0;entryDy=0;" parent="1" source="WjwwnHzcMkBrjSKsb_c8-114" target="WjwwnHzcMkBrjSKsb_c8-116" edge="1">
          <mxGeometry relative="1" as="geometry">
            <mxPoint x="308" y="-351" as="sourcePoint" />
            <mxPoint x="175" y="-260" as="targetPoint" />
          </mxGeometry>
        </mxCell>
        <mxCell id="WjwwnHzcMkBrjSKsb_c8-147" value="" style="endArrow=none;html=1;rounded=0;entryX=0;entryY=0.5;entryDx=0;entryDy=0;" parent="1" target="WjwwnHzcMkBrjSKsb_c8-119" edge="1">
          <mxGeometry relative="1" as="geometry">
            <mxPoint x="310" y="-350" as="sourcePoint" />
            <mxPoint x="280" y="-340" as="targetPoint" />
          </mxGeometry>
        </mxCell>
        <mxCell id="WjwwnHzcMkBrjSKsb_c8-149" value="Aprova" style="shape=rhombus;perimeter=rhombusPerimeter;whiteSpace=wrap;html=1;align=center;" parent="1" vertex="1">
          <mxGeometry x="70" y="-370" width="120" height="60" as="geometry" />
        </mxCell>
        <mxCell id="WjwwnHzcMkBrjSKsb_c8-155" value="Prepara" style="shape=rhombus;perimeter=rhombusPerimeter;whiteSpace=wrap;html=1;align=center;" parent="1" vertex="1">
          <mxGeometry x="385" y="-320" width="120" height="60" as="geometry" />
        </mxCell>
        <mxCell id="WjwwnHzcMkBrjSKsb_c8-156" value="" style="endArrow=none;html=1;rounded=0;entryX=0.75;entryY=0;entryDx=0;entryDy=0;exitX=0;exitY=1;exitDx=0;exitDy=0;" parent="1" source="WjwwnHzcMkBrjSKsb_c8-139" target="WjwwnHzcMkBrjSKsb_c8-123" edge="1">
          <mxGeometry relative="1" as="geometry">
            <mxPoint x="490" y="-230" as="sourcePoint" />
            <mxPoint x="300" y="-260" as="targetPoint" />
          </mxGeometry>
        </mxCell>
        <mxCell id="WjwwnHzcMkBrjSKsb_c8-158" value="" style="endArrow=none;html=1;rounded=0;entryX=0.25;entryY=0;entryDx=0;entryDy=0;" parent="1" source="WjwwnHzcMkBrjSKsb_c8-138" target="WjwwnHzcMkBrjSKsb_c8-123" edge="1">
          <mxGeometry relative="1" as="geometry">
            <mxPoint x="384" y="-221" as="sourcePoint" />
            <mxPoint x="400" y="-220" as="targetPoint" />
          </mxGeometry>
        </mxCell>
        <mxCell id="WjwwnHzcMkBrjSKsb_c8-159" value="" style="endArrow=none;html=1;rounded=0;exitX=1;exitY=0;exitDx=0;exitDy=0;" parent="1" source="WjwwnHzcMkBrjSKsb_c8-140" edge="1">
          <mxGeometry relative="1" as="geometry">
            <mxPoint x="219" y="-76" as="sourcePoint" />
            <mxPoint x="445" y="-140" as="targetPoint" />
          </mxGeometry>
        </mxCell>
        <mxCell id="WjwwnHzcMkBrjSKsb_c8-160" value="Preço Unitário" style="ellipse;whiteSpace=wrap;html=1;align=center;" parent="1" vertex="1">
          <mxGeometry x="430" y="-70" width="100" height="40" as="geometry" />
        </mxCell>
        <mxCell id="WjwwnHzcMkBrjSKsb_c8-161" value="" style="endArrow=none;html=1;rounded=0;exitX=0.5;exitY=0;exitDx=0;exitDy=0;entryX=0.5;entryY=1;entryDx=0;entryDy=0;" parent="1" source="WjwwnHzcMkBrjSKsb_c8-160" target="WjwwnHzcMkBrjSKsb_c8-123" edge="1">
          <mxGeometry relative="1" as="geometry">
            <mxPoint x="570" y="-130" as="sourcePoint" />
            <mxPoint x="440" y="-150" as="targetPoint" />
          </mxGeometry>
        </mxCell>
        <mxCell id="WjwwnHzcMkBrjSKsb_c8-164" value="" style="fontSize=12;html=1;endArrow=ERzeroToMany;endFill=1;rounded=0;entryX=0.5;entryY=0;entryDx=0;entryDy=0;exitX=0.5;exitY=1;exitDx=0;exitDy=0;edgeStyle=orthogonalEdgeStyle;" parent="1" source="WjwwnHzcMkBrjSKsb_c8-155" target="WjwwnHzcMkBrjSKsb_c8-123" edge="1">
          <mxGeometry width="100" height="100" relative="1" as="geometry">
            <mxPoint x="440" y="-160" as="sourcePoint" />
            <mxPoint x="540" y="-260" as="targetPoint" />
          </mxGeometry>
        </mxCell>
        <mxCell id="WjwwnHzcMkBrjSKsb_c8-165" value="Contém" style="shape=rhombus;perimeter=rhombusPerimeter;whiteSpace=wrap;html=1;align=center;" parent="1" vertex="1">
          <mxGeometry x="630" y="-190" width="120" height="60" as="geometry" />
        </mxCell>
        <mxCell id="WjwwnHzcMkBrjSKsb_c8-167" value="Faz" style="shape=rhombus;perimeter=rhombusPerimeter;whiteSpace=wrap;html=1;align=center;" parent="1" vertex="1">
          <mxGeometry x="540" y="-370" width="90" height="60" as="geometry" />
        </mxCell>
        <mxCell id="WjwwnHzcMkBrjSKsb_c8-169" value="" style="fontSize=12;html=1;endArrow=ERzeroToMany;endFill=1;rounded=0;exitX=0.5;exitY=1;exitDx=0;exitDy=0;edgeStyle=orthogonalEdgeStyle;entryX=0;entryY=0.5;entryDx=0;entryDy=0;" parent="1" source="WjwwnHzcMkBrjSKsb_c8-167" target="WjwwnHzcMkBrjSKsb_c8-127" edge="1">
          <mxGeometry width="100" height="100" relative="1" as="geometry">
            <mxPoint x="455" y="-250" as="sourcePoint" />
            <mxPoint x="610" y="-290" as="targetPoint" />
          </mxGeometry>
        </mxCell>
        <mxCell id="WjwwnHzcMkBrjSKsb_c8-173" value="1" style="text;html=1;align=center;verticalAlign=middle;resizable=0;points=[];autosize=1;strokeColor=none;fillColor=none;" parent="1" vertex="1">
          <mxGeometry x="130" y="-400" width="30" height="30" as="geometry" />
        </mxCell>
        <mxCell id="WjwwnHzcMkBrjSKsb_c8-174" value="0 ou N" style="text;html=1;align=center;verticalAlign=middle;resizable=0;points=[];autosize=1;strokeColor=none;fillColor=none;" parent="1" vertex="1">
          <mxGeometry x="180" y="-290" width="60" height="30" as="geometry" />
        </mxCell>
        <mxCell id="WjwwnHzcMkBrjSKsb_c8-175" value="1" style="text;html=1;align=center;verticalAlign=middle;resizable=0;points=[];autosize=1;strokeColor=none;fillColor=none;" parent="1" vertex="1">
          <mxGeometry x="340" y="-320" width="30" height="30" as="geometry" />
        </mxCell>
        <mxCell id="WjwwnHzcMkBrjSKsb_c8-176" value="0 ou N" style="text;html=1;align=center;verticalAlign=middle;resizable=0;points=[];autosize=1;strokeColor=none;fillColor=none;" parent="1" vertex="1">
          <mxGeometry x="440" y="-220" width="60" height="30" as="geometry" />
        </mxCell>
        <mxCell id="WjwwnHzcMkBrjSKsb_c8-179" value="0 ou N" style="text;html=1;align=center;verticalAlign=middle;resizable=0;points=[];autosize=1;strokeColor=none;fillColor=none;" parent="1" vertex="1">
          <mxGeometry x="580" y="-270" width="60" height="30" as="geometry" />
        </mxCell>
        <mxCell id="WjwwnHzcMkBrjSKsb_c8-182" value="" style="edgeStyle=entityRelationEdgeStyle;fontSize=12;html=1;endArrow=ERmany;rounded=0;entryX=1;entryY=0.5;entryDx=0;entryDy=0;" parent="1" source="WjwwnHzcMkBrjSKsb_c8-165" target="WjwwnHzcMkBrjSKsb_c8-123" edge="1">
          <mxGeometry width="100" height="100" relative="1" as="geometry">
            <mxPoint x="430" y="-130" as="sourcePoint" />
            <mxPoint x="530" y="-230" as="targetPoint" />
          </mxGeometry>
        </mxCell>
        <mxCell id="WjwwnHzcMkBrjSKsb_c8-184" value="1 ou N" style="text;html=1;align=center;verticalAlign=middle;resizable=0;points=[];autosize=1;strokeColor=none;fillColor=none;" parent="1" vertex="1">
          <mxGeometry x="495" y="-190" width="60" height="30" as="geometry" />
        </mxCell>
        <mxCell id="WjwwnHzcMkBrjSKsb_c8-185" value="Data/Hora" style="ellipse;whiteSpace=wrap;html=1;align=center;" parent="1" vertex="1">
          <mxGeometry x="610.5" y="-387.5" width="70" height="35" as="geometry" />
        </mxCell>
        <mxCell id="WjwwnHzcMkBrjSKsb_c8-186" value="Quantidade" style="ellipse;whiteSpace=wrap;html=1;align=center;" parent="1" vertex="1">
          <mxGeometry x="640" y="-85" width="100" height="40" as="geometry" />
        </mxCell>
        <mxCell id="WjwwnHzcMkBrjSKsb_c8-188" value="" style="endArrow=none;html=1;rounded=0;entryX=1;entryY=0.5;entryDx=0;entryDy=0;exitX=0.5;exitY=1;exitDx=0;exitDy=0;" parent="1" source="WjwwnHzcMkBrjSKsb_c8-185" target="WjwwnHzcMkBrjSKsb_c8-167" edge="1">
          <mxGeometry relative="1" as="geometry">
            <mxPoint x="542" y="-414" as="sourcePoint" />
            <mxPoint x="505" y="-410" as="targetPoint" />
          </mxGeometry>
        </mxCell>
        <mxCell id="WjwwnHzcMkBrjSKsb_c8-189" value="" style="endArrow=none;html=1;rounded=0;entryX=0.5;entryY=0;entryDx=0;entryDy=0;" parent="1" source="WjwwnHzcMkBrjSKsb_c8-165" target="WjwwnHzcMkBrjSKsb_c8-186" edge="1">
          <mxGeometry relative="1" as="geometry">
            <mxPoint x="690" y="-130" as="sourcePoint" />
            <mxPoint x="670" y="-320" as="targetPoint" />
          </mxGeometry>
        </mxCell>
        <mxCell id="WjwwnHzcMkBrjSKsb_c8-190" style="edgeStyle=orthogonalEdgeStyle;rounded=0;orthogonalLoop=1;jettySize=auto;html=1;exitX=0.5;exitY=1;exitDx=0;exitDy=0;" parent="1" source="WjwwnHzcMkBrjSKsb_c8-186" target="WjwwnHzcMkBrjSKsb_c8-186" edge="1">
          <mxGeometry relative="1" as="geometry" />
        </mxCell>
        <mxCell id="WjwwnHzcMkBrjSKsb_c8-191" value="Status" style="ellipse;whiteSpace=wrap;html=1;align=center;" parent="1" vertex="1">
          <mxGeometry x="620" y="-335" width="70" height="30" as="geometry" />
        </mxCell>
        <mxCell id="WjwwnHzcMkBrjSKsb_c8-192" value="" style="endArrow=none;html=1;rounded=0;entryX=0.182;entryY=-0.025;entryDx=0;entryDy=0;entryPerimeter=0;" parent="1" source="WjwwnHzcMkBrjSKsb_c8-191" target="WjwwnHzcMkBrjSKsb_c8-127" edge="1">
          <mxGeometry relative="1" as="geometry">
            <mxPoint x="690" y="-350" as="sourcePoint" />
            <mxPoint x="670" y="-320" as="targetPoint" />
          </mxGeometry>
        </mxCell>
        <mxCell id="WjwwnHzcMkBrjSKsb_c8-194" value="Código" style="ellipse;whiteSpace=wrap;html=1;align=center;fontStyle=4;" parent="1" vertex="1">
          <mxGeometry x="250" y="-170" width="100" height="40" as="geometry" />
        </mxCell>
        <mxCell id="WjwwnHzcMkBrjSKsb_c8-195" value="DDD" style="ellipse;whiteSpace=wrap;html=1;align=center;" parent="1" vertex="1">
          <mxGeometry x="120" y="-195" width="100" height="40" as="geometry" />
        </mxCell>
        <mxCell id="WjwwnHzcMkBrjSKsb_c8-196" value="Número" style="ellipse;whiteSpace=wrap;html=1;align=center;" parent="1" vertex="1">
          <mxGeometry x="150" y="-145" width="100" height="40" as="geometry" />
        </mxCell>
        <mxCell id="WjwwnHzcMkBrjSKsb_c8-197" value="" style="endArrow=none;html=1;rounded=0;entryX=0.5;entryY=1;entryDx=0;entryDy=0;" parent="1" source="WjwwnHzcMkBrjSKsb_c8-194" target="WjwwnHzcMkBrjSKsb_c8-121" edge="1">
          <mxGeometry relative="1" as="geometry">
            <mxPoint x="360" y="-130" as="sourcePoint" />
            <mxPoint x="220" y="-210" as="targetPoint" />
          </mxGeometry>
        </mxCell>
        <mxCell id="WjwwnHzcMkBrjSKsb_c8-198" value="" style="endArrow=none;html=1;rounded=0;exitX=1;exitY=0.5;exitDx=0;exitDy=0;entryX=0.5;entryY=1;entryDx=0;entryDy=0;" parent="1" source="WjwwnHzcMkBrjSKsb_c8-195" target="WjwwnHzcMkBrjSKsb_c8-121" edge="1">
          <mxGeometry relative="1" as="geometry">
            <mxPoint x="140" y="-200" as="sourcePoint" />
            <mxPoint x="220" y="-210" as="targetPoint" />
          </mxGeometry>
        </mxCell>
        <mxCell id="WjwwnHzcMkBrjSKsb_c8-199" value="" style="endArrow=none;html=1;rounded=0;entryX=0.5;entryY=1;entryDx=0;entryDy=0;exitX=0.5;exitY=0;exitDx=0;exitDy=0;" parent="1" source="WjwwnHzcMkBrjSKsb_c8-196" target="WjwwnHzcMkBrjSKsb_c8-121" edge="1">
          <mxGeometry relative="1" as="geometry">
            <mxPoint x="170" y="-140" as="sourcePoint" />
            <mxPoint x="230" y="-200" as="targetPoint" />
          </mxGeometry>
        </mxCell>
        <mxCell id="WjwwnHzcMkBrjSKsb_c8-201" value="Categoria" style="whiteSpace=wrap;html=1;align=center;" parent="1" vertex="1">
          <mxGeometry x="395" y="90" width="100" height="40" as="geometry" />
        </mxCell>
        <mxCell id="WjwwnHzcMkBrjSKsb_c8-202" value="Código" style="ellipse;whiteSpace=wrap;html=1;align=center;fontStyle=4;" parent="1" vertex="1">
          <mxGeometry x="345" y="160" width="100" height="40" as="geometry" />
        </mxCell>
        <mxCell id="WjwwnHzcMkBrjSKsb_c8-203" value="Nome" style="ellipse;whiteSpace=wrap;html=1;align=center;" parent="1" vertex="1">
          <mxGeometry x="465" y="160" width="100" height="40" as="geometry" />
        </mxCell>
        <mxCell id="WjwwnHzcMkBrjSKsb_c8-204" value="Contém" style="shape=rhombus;perimeter=rhombusPerimeter;whiteSpace=wrap;html=1;align=center;" parent="1" vertex="1">
          <mxGeometry x="525" y="-60" width="120" height="60" as="geometry" />
        </mxCell>
        <mxCell id="WjwwnHzcMkBrjSKsb_c8-206" value="" style="edgeStyle=orthogonalEdgeStyle;fontSize=12;html=1;endArrow=ERmany;rounded=0;exitX=0.5;exitY=0;exitDx=0;exitDy=0;entryX=0.75;entryY=1;entryDx=0;entryDy=0;" parent="1" source="WjwwnHzcMkBrjSKsb_c8-204" target="WjwwnHzcMkBrjSKsb_c8-123" edge="1">
          <mxGeometry width="100" height="100" relative="1" as="geometry">
            <mxPoint x="470" y="-40" as="sourcePoint" />
            <mxPoint x="450" y="-170" as="targetPoint" />
          </mxGeometry>
        </mxCell>
        <mxCell id="WjwwnHzcMkBrjSKsb_c8-207" value="" style="edgeStyle=orthogonalEdgeStyle;fontSize=12;html=1;endArrow=ERmany;rounded=0;exitX=0.5;exitY=1;exitDx=0;exitDy=0;" parent="1" source="WjwwnHzcMkBrjSKsb_c8-204" target="WjwwnHzcMkBrjSKsb_c8-201" edge="1">
          <mxGeometry width="100" height="100" relative="1" as="geometry">
            <mxPoint x="450" y="-60" as="sourcePoint" />
            <mxPoint x="460" y="-160" as="targetPoint" />
          </mxGeometry>
        </mxCell>
        <mxCell id="WjwwnHzcMkBrjSKsb_c8-208" value="" style="endArrow=none;html=1;rounded=0;entryX=0.5;entryY=1;entryDx=0;entryDy=0;exitX=0.5;exitY=0;exitDx=0;exitDy=0;" parent="1" source="WjwwnHzcMkBrjSKsb_c8-202" target="WjwwnHzcMkBrjSKsb_c8-201" edge="1">
          <mxGeometry relative="1" as="geometry">
            <mxPoint x="396" y="-108" as="sourcePoint" />
            <mxPoint x="455" y="-160" as="targetPoint" />
          </mxGeometry>
        </mxCell>
        <mxCell id="WjwwnHzcMkBrjSKsb_c8-210" value="" style="endArrow=none;html=1;rounded=0;entryX=0.5;entryY=1;entryDx=0;entryDy=0;" parent="1" source="WjwwnHzcMkBrjSKsb_c8-203" target="WjwwnHzcMkBrjSKsb_c8-201" edge="1">
          <mxGeometry relative="1" as="geometry">
            <mxPoint x="355" y="60" as="sourcePoint" />
            <mxPoint x="405" y="50" as="targetPoint" />
          </mxGeometry>
        </mxCell>
        <mxCell id="WjwwnHzcMkBrjSKsb_c8-212" value="1 ou N" style="text;html=1;align=center;verticalAlign=middle;resizable=0;points=[];autosize=1;strokeColor=none;fillColor=none;" parent="1" vertex="1">
          <mxGeometry x="470" y="-140" width="60" height="30" as="geometry" />
        </mxCell>
        <mxCell id="WjwwnHzcMkBrjSKsb_c8-213" value="1 ou N" style="text;html=1;align=center;verticalAlign=middle;resizable=0;points=[];autosize=1;strokeColor=none;fillColor=none;" parent="1" vertex="1">
          <mxGeometry x="445" y="60" width="60" height="30" as="geometry" />
        </mxCell>
        <mxCell id="WjwwnHzcMkBrjSKsb_c8-215" value="Endereço" style="whiteSpace=wrap;html=1;align=center;" parent="1" vertex="1">
          <mxGeometry x="-90" y="-250" width="100" height="40" as="geometry" />
        </mxCell>
        <mxCell id="WjwwnHzcMkBrjSKsb_c8-216" value="Código" style="ellipse;whiteSpace=wrap;html=1;align=center;fontStyle=4;" parent="1" vertex="1">
          <mxGeometry x="-40" y="-310" width="100" height="40" as="geometry" />
        </mxCell>
        <mxCell id="WjwwnHzcMkBrjSKsb_c8-217" value="Nome" style="ellipse;whiteSpace=wrap;html=1;align=center;" parent="1" vertex="1">
          <mxGeometry x="-200" y="-290" width="100" height="40" as="geometry" />
        </mxCell>
        <mxCell id="WjwwnHzcMkBrjSKsb_c8-218" value="Possui" style="shape=rhombus;perimeter=rhombusPerimeter;whiteSpace=wrap;html=1;align=center;" parent="1" vertex="1">
          <mxGeometry x="70" y="-260" width="120" height="60" as="geometry" />
        </mxCell>
        <mxCell id="WjwwnHzcMkBrjSKsb_c8-219" value="" style="edgeStyle=entityRelationEdgeStyle;fontSize=12;html=1;endArrow=ERmandOne;rounded=0;entryX=1;entryY=0.5;entryDx=0;entryDy=0;" parent="1" source="WjwwnHzcMkBrjSKsb_c8-218" target="WjwwnHzcMkBrjSKsb_c8-215" edge="1">
          <mxGeometry width="100" height="100" relative="1" as="geometry">
            <mxPoint x="230" y="-70" as="sourcePoint" />
            <mxPoint x="330" y="-170" as="targetPoint" />
          </mxGeometry>
        </mxCell>
        <mxCell id="WjwwnHzcMkBrjSKsb_c8-221" value="" style="edgeStyle=orthogonalEdgeStyle;fontSize=12;html=1;endArrow=ERzeroToOne;endFill=1;rounded=0;exitX=1;exitY=0.5;exitDx=0;exitDy=0;entryX=0.25;entryY=1;entryDx=0;entryDy=0;" parent="1" source="WjwwnHzcMkBrjSKsb_c8-218" target="WjwwnHzcMkBrjSKsb_c8-116" edge="1">
          <mxGeometry width="100" height="100" relative="1" as="geometry">
            <mxPoint x="230" y="-70" as="sourcePoint" />
            <mxPoint x="290" y="-270" as="targetPoint" />
          </mxGeometry>
        </mxCell>
        <mxCell id="WjwwnHzcMkBrjSKsb_c8-223" value="1" style="text;html=1;align=center;verticalAlign=middle;resizable=0;points=[];autosize=1;strokeColor=none;fillColor=none;" parent="1" vertex="1">
          <mxGeometry x="235" y="-270" width="30" height="30" as="geometry" />
        </mxCell>
        <mxCell id="WjwwnHzcMkBrjSKsb_c8-224" value="1" style="text;html=1;align=center;verticalAlign=middle;resizable=0;points=[];autosize=1;strokeColor=none;fillColor=none;" parent="1" vertex="1">
          <mxGeometry x="10" y="-260" width="30" height="30" as="geometry" />
        </mxCell>
        <mxCell id="WjwwnHzcMkBrjSKsb_c8-225" value="Número" style="ellipse;whiteSpace=wrap;html=1;align=center;" parent="1" vertex="1">
          <mxGeometry x="-190" y="-170" width="100" height="40" as="geometry" />
        </mxCell>
        <mxCell id="WjwwnHzcMkBrjSKsb_c8-226" value="Bairro" style="ellipse;whiteSpace=wrap;html=1;align=center;" parent="1" vertex="1">
          <mxGeometry x="-210" y="-230" width="100" height="40" as="geometry" />
        </mxCell>
        <mxCell id="WjwwnHzcMkBrjSKsb_c8-227" value="Logradouro" style="ellipse;whiteSpace=wrap;html=1;align=center;" parent="1" vertex="1">
          <mxGeometry x="-140" y="-340" width="100" height="40" as="geometry" />
        </mxCell>
        <mxCell id="WjwwnHzcMkBrjSKsb_c8-230" value="Cidade" style="ellipse;whiteSpace=wrap;html=1;align=center;" parent="1" vertex="1">
          <mxGeometry x="-90" y="-150" width="100" height="40" as="geometry" />
        </mxCell>
        <mxCell id="WjwwnHzcMkBrjSKsb_c8-231" value="Referência" style="ellipse;whiteSpace=wrap;html=1;align=center;" parent="1" vertex="1">
          <mxGeometry x="-20" y="-190" width="100" height="40" as="geometry" />
        </mxCell>
        <mxCell id="WjwwnHzcMkBrjSKsb_c8-232" value="" style="endArrow=none;html=1;rounded=0;exitX=0.5;exitY=0;exitDx=0;exitDy=0;entryX=0.5;entryY=1;entryDx=0;entryDy=0;" parent="1" source="WjwwnHzcMkBrjSKsb_c8-230" target="WjwwnHzcMkBrjSKsb_c8-215" edge="1">
          <mxGeometry relative="1" as="geometry">
            <mxPoint x="200" y="-150" as="sourcePoint" />
            <mxPoint x="300" y="-170" as="targetPoint" />
          </mxGeometry>
        </mxCell>
        <mxCell id="WjwwnHzcMkBrjSKsb_c8-233" value="" style="endArrow=none;html=1;rounded=0;exitX=0.5;exitY=1;exitDx=0;exitDy=0;entryX=0;entryY=0;entryDx=0;entryDy=0;" parent="1" source="WjwwnHzcMkBrjSKsb_c8-215" target="WjwwnHzcMkBrjSKsb_c8-231" edge="1">
          <mxGeometry relative="1" as="geometry">
            <mxPoint x="-30" y="-140" as="sourcePoint" />
            <mxPoint x="-30" y="-200" as="targetPoint" />
          </mxGeometry>
        </mxCell>
        <mxCell id="WjwwnHzcMkBrjSKsb_c8-234" value="" style="endArrow=none;html=1;rounded=0;entryX=1;entryY=0;entryDx=0;entryDy=0;exitX=0.5;exitY=1;exitDx=0;exitDy=0;" parent="1" source="WjwwnHzcMkBrjSKsb_c8-215" target="WjwwnHzcMkBrjSKsb_c8-225" edge="1">
          <mxGeometry relative="1" as="geometry">
            <mxPoint x="-40" y="-210" as="sourcePoint" />
            <mxPoint x="-30" y="-200" as="targetPoint" />
          </mxGeometry>
        </mxCell>
        <mxCell id="WjwwnHzcMkBrjSKsb_c8-235" value="" style="endArrow=none;html=1;rounded=0;entryX=1;entryY=0.5;entryDx=0;entryDy=0;exitX=0;exitY=0.5;exitDx=0;exitDy=0;" parent="1" source="WjwwnHzcMkBrjSKsb_c8-215" target="WjwwnHzcMkBrjSKsb_c8-226" edge="1">
          <mxGeometry relative="1" as="geometry">
            <mxPoint x="-55" y="-200" as="sourcePoint" />
            <mxPoint x="-95" y="-154" as="targetPoint" />
          </mxGeometry>
        </mxCell>
        <mxCell id="WjwwnHzcMkBrjSKsb_c8-236" value="" style="endArrow=none;html=1;rounded=0;entryX=1;entryY=0.5;entryDx=0;entryDy=0;exitX=0.25;exitY=0;exitDx=0;exitDy=0;" parent="1" source="WjwwnHzcMkBrjSKsb_c8-215" target="WjwwnHzcMkBrjSKsb_c8-217" edge="1">
          <mxGeometry relative="1" as="geometry">
            <mxPoint x="-80" y="-220" as="sourcePoint" />
            <mxPoint x="-100" y="-200" as="targetPoint" />
          </mxGeometry>
        </mxCell>
        <mxCell id="WjwwnHzcMkBrjSKsb_c8-237" value="" style="endArrow=none;html=1;rounded=0;entryX=0.5;entryY=1;entryDx=0;entryDy=0;exitX=0.5;exitY=0;exitDx=0;exitDy=0;" parent="1" source="WjwwnHzcMkBrjSKsb_c8-215" target="WjwwnHzcMkBrjSKsb_c8-227" edge="1">
          <mxGeometry relative="1" as="geometry">
            <mxPoint x="-50" y="-250" as="sourcePoint" />
            <mxPoint x="-90" y="-260" as="targetPoint" />
          </mxGeometry>
        </mxCell>
        <mxCell id="WjwwnHzcMkBrjSKsb_c8-238" value="" style="endArrow=none;html=1;rounded=0;entryX=0.5;entryY=1;entryDx=0;entryDy=0;exitX=0.5;exitY=0;exitDx=0;exitDy=0;" parent="1" source="WjwwnHzcMkBrjSKsb_c8-215" target="WjwwnHzcMkBrjSKsb_c8-216" edge="1">
          <mxGeometry relative="1" as="geometry">
            <mxPoint x="-30" y="-240" as="sourcePoint" />
            <mxPoint x="-80" y="-290" as="targetPoint" />
          </mxGeometry>
        </mxCell>
        <mxCell id="WjwwnHzcMkBrjSKsb_c8-240" value="" style="edgeStyle=orthogonalEdgeStyle;fontSize=12;html=1;endArrow=ERmany;rounded=0;entryX=0.5;entryY=1;entryDx=0;entryDy=0;exitX=0.5;exitY=0;exitDx=0;exitDy=0;" parent="1" source="WjwwnHzcMkBrjSKsb_c8-165" target="WjwwnHzcMkBrjSKsb_c8-127" edge="1">
          <mxGeometry width="100" height="100" relative="1" as="geometry">
            <mxPoint x="640" y="-180" as="sourcePoint" />
            <mxPoint x="505" y="-150" as="targetPoint" />
          </mxGeometry>
        </mxCell>
        <mxCell id="WjwwnHzcMkBrjSKsb_c8-242" value="1 ou N" style="text;html=1;align=center;verticalAlign=middle;resizable=0;points=[];autosize=1;strokeColor=none;fillColor=none;" parent="1" vertex="1">
          <mxGeometry x="635" y="-255" width="60" height="30" as="geometry" />
        </mxCell>
        <mxCell id="i0df7u659DcUU07UK3Iy-5" value="" style="edgeStyle=orthogonalEdgeStyle;fontSize=12;html=1;endArrow=ERmandOne;rounded=0;entryX=0.5;entryY=1;entryDx=0;entryDy=0;exitX=0.5;exitY=0;exitDx=0;exitDy=0;" parent="1" source="WjwwnHzcMkBrjSKsb_c8-149" target="WjwwnHzcMkBrjSKsb_c8-115" edge="1">
          <mxGeometry width="100" height="100" relative="1" as="geometry">
            <mxPoint x="80" y="-220" as="sourcePoint" />
            <mxPoint x="20" y="-220" as="targetPoint" />
          </mxGeometry>
        </mxCell>
        <mxCell id="i0df7u659DcUU07UK3Iy-6" value="" style="edgeStyle=orthogonalEdgeStyle;fontSize=12;html=1;endArrow=ERmandOne;rounded=0;entryX=1;entryY=0.5;entryDx=0;entryDy=0;exitX=0;exitY=0.5;exitDx=0;exitDy=0;" parent="1" source="WjwwnHzcMkBrjSKsb_c8-155" target="WjwwnHzcMkBrjSKsb_c8-116" edge="1">
          <mxGeometry width="100" height="100" relative="1" as="geometry">
            <mxPoint x="140" y="-360" as="sourcePoint" />
            <mxPoint x="140" y="-390" as="targetPoint" />
          </mxGeometry>
        </mxCell>
        <mxCell id="i0df7u659DcUU07UK3Iy-7" value="" style="edgeStyle=orthogonalEdgeStyle;fontSize=12;html=1;endArrow=ERmandOne;rounded=0;entryX=0.5;entryY=1;entryDx=0;entryDy=0;exitX=0;exitY=0.5;exitDx=0;exitDy=0;" parent="1" source="WjwwnHzcMkBrjSKsb_c8-167" target="WjwwnHzcMkBrjSKsb_c8-119" edge="1">
          <mxGeometry width="100" height="100" relative="1" as="geometry">
            <mxPoint x="395" y="-280" as="sourcePoint" />
            <mxPoint x="350" y="-280" as="targetPoint" />
          </mxGeometry>
        </mxCell>
        <mxCell id="i0df7u659DcUU07UK3Iy-8" value="Email" style="ellipse;whiteSpace=wrap;html=1;align=center;fontStyle=4;" parent="1" vertex="1">
          <mxGeometry x="295" y="-531" width="85" height="40" as="geometry" />
        </mxCell>
        <mxCell id="i0df7u659DcUU07UK3Iy-9" value="Data de Nascimento" style="ellipse;whiteSpace=wrap;html=1;align=center;" parent="1" vertex="1">
          <mxGeometry x="430" y="-580" width="100" height="40" as="geometry" />
        </mxCell>
        <mxCell id="i0df7u659DcUU07UK3Iy-12" value="Idade" style="ellipse;whiteSpace=wrap;html=1;align=center;dashed=1;" parent="1" vertex="1">
          <mxGeometry x="390" y="-540" width="65" height="40" as="geometry" />
        </mxCell>
        <mxCell id="i0df7u659DcUU07UK3Iy-13" value="" style="endArrow=none;html=1;rounded=0;entryX=0.5;entryY=0;entryDx=0;entryDy=0;exitX=1;exitY=1;exitDx=0;exitDy=0;" parent="1" source="i0df7u659DcUU07UK3Iy-12" target="WjwwnHzcMkBrjSKsb_c8-119" edge="1">
          <mxGeometry relative="1" as="geometry">
            <mxPoint x="540" y="-392" as="sourcePoint" />
            <mxPoint x="515" y="-400" as="targetPoint" />
            <Array as="points" />
          </mxGeometry>
        </mxCell>
        <mxCell id="i0df7u659DcUU07UK3Iy-14" value="Disponível" style="ellipse;whiteSpace=wrap;html=1;align=center;" parent="1" vertex="1">
          <mxGeometry x="295" y="-80" width="100" height="40" as="geometry" />
        </mxCell>
        <mxCell id="i0df7u659DcUU07UK3Iy-15" value="" style="endArrow=none;html=1;rounded=0;exitX=1;exitY=0;exitDx=0;exitDy=0;entryX=0.5;entryY=1;entryDx=0;entryDy=0;" parent="1" source="i0df7u659DcUU07UK3Iy-14" target="WjwwnHzcMkBrjSKsb_c8-123" edge="1">
          <mxGeometry relative="1" as="geometry">
            <mxPoint x="410" y="-104" as="sourcePoint" />
            <mxPoint x="450" y="-140" as="targetPoint" />
          </mxGeometry>
        </mxCell>
        <mxCell id="i0df7u659DcUU07UK3Iy-16" value="Ativo" style="ellipse;whiteSpace=wrap;html=1;align=center;" parent="1" vertex="1">
          <mxGeometry x="350" y="-30" width="100" height="40" as="geometry" />
        </mxCell>
        <mxCell id="i0df7u659DcUU07UK3Iy-17" value="" style="endArrow=none;html=1;rounded=0;exitX=0.5;exitY=0;exitDx=0;exitDy=0;entryX=0.5;entryY=1;entryDx=0;entryDy=0;" parent="1" source="i0df7u659DcUU07UK3Iy-16" target="WjwwnHzcMkBrjSKsb_c8-123" edge="1">
          <mxGeometry relative="1" as="geometry">
            <mxPoint x="390" y="-64" as="sourcePoint" />
            <mxPoint x="455" y="-130" as="targetPoint" />
          </mxGeometry>
        </mxCell>
        <mxCell id="7fjFTD8caaiCh2rXImrQ-1" value="" style="edgeStyle=orthogonalEdgeStyle;fontSize=12;html=1;endArrow=ERzeroToMany;endFill=1;rounded=0;exitX=1;exitY=0.5;exitDx=0;exitDy=0;" parent="1" source="WjwwnHzcMkBrjSKsb_c8-149" target="WjwwnHzcMkBrjSKsb_c8-116" edge="1">
          <mxGeometry width="100" height="100" relative="1" as="geometry">
            <mxPoint x="250" y="-240" as="sourcePoint" />
            <mxPoint x="350" y="-340" as="targetPoint" />
            <Array as="points">
              <mxPoint x="200" y="-340" />
              <mxPoint x="200" y="-290" />
            </Array>
          </mxGeometry>
        </mxCell>
        <mxCell id="zs7TGqVESP4GtWaQI1Wk-7" value="Contém" style="shape=rhombus;perimeter=rhombusPerimeter;whiteSpace=wrap;html=1;align=center;" parent="1" vertex="1">
          <mxGeometry x="806" y="-155" width="90" height="44" as="geometry" />
        </mxCell>
        <mxCell id="hniN_vU34hfQTDvHGKLZ-97" style="rounded=0;orthogonalLoop=1;jettySize=auto;html=1;exitX=1;exitY=0.5;exitDx=0;exitDy=0;entryX=0.38;entryY=0;entryDx=0;entryDy=0;endArrow=none;endFill=0;entryPerimeter=0;" parent="1" source="zs7TGqVESP4GtWaQI1Wk-8" target="hniN_vU34hfQTDvHGKLZ-91" edge="1">
          <mxGeometry relative="1" as="geometry" />
        </mxCell>
        <mxCell id="hniN_vU34hfQTDvHGKLZ-98" style="rounded=0;orthogonalLoop=1;jettySize=auto;html=1;exitX=1;exitY=0.5;exitDx=0;exitDy=0;endArrow=none;endFill=0;" parent="1" source="zs7TGqVESP4GtWaQI1Wk-8" target="hniN_vU34hfQTDvHGKLZ-92" edge="1">
          <mxGeometry relative="1" as="geometry" />
        </mxCell>
        <mxCell id="hniN_vU34hfQTDvHGKLZ-99" style="rounded=0;orthogonalLoop=1;jettySize=auto;html=1;exitX=1;exitY=0.5;exitDx=0;exitDy=0;entryX=0;entryY=0.5;entryDx=0;entryDy=0;endArrow=none;endFill=0;" parent="1" source="zs7TGqVESP4GtWaQI1Wk-8" target="hniN_vU34hfQTDvHGKLZ-90" edge="1">
          <mxGeometry relative="1" as="geometry" />
        </mxCell>
        <mxCell id="zs7TGqVESP4GtWaQI1Wk-8" value="Pagamento" style="whiteSpace=wrap;html=1;align=center;" parent="1" vertex="1">
          <mxGeometry x="1024" y="-290" width="100" height="40" as="geometry" />
        </mxCell>
        <mxCell id="zs7TGqVESP4GtWaQI1Wk-9" value="" style="endArrow=none;html=1;rounded=0;exitX=0.5;exitY=1;exitDx=0;exitDy=0;entryX=0.5;entryY=0;entryDx=0;entryDy=0;" parent="1" source="zs7TGqVESP4GtWaQI1Wk-10" target="zs7TGqVESP4GtWaQI1Wk-18" edge="1">
          <mxGeometry relative="1" as="geometry">
            <mxPoint x="1131" y="-477.5" as="sourcePoint" />
            <mxPoint x="853" y="-517.5" as="targetPoint" />
          </mxGeometry>
        </mxCell>
        <mxCell id="zs7TGqVESP4GtWaQI1Wk-10" value="COD." style="ellipse;whiteSpace=wrap;html=1;align=center;fontStyle=4;" parent="1" vertex="1">
          <mxGeometry x="610.5" y="-694.2" width="49" height="36" as="geometry" />
        </mxCell>
        <mxCell id="zs7TGqVESP4GtWaQI1Wk-11" value="" style="endArrow=none;html=1;rounded=0;exitX=0.5;exitY=1;exitDx=0;exitDy=0;entryX=0.5;entryY=0;entryDx=0;entryDy=0;" parent="1" source="zs7TGqVESP4GtWaQI1Wk-12" target="zs7TGqVESP4GtWaQI1Wk-18" edge="1">
          <mxGeometry relative="1" as="geometry">
            <mxPoint x="897.5" y="-498.5" as="sourcePoint" />
            <mxPoint x="621.5" y="-588.5" as="targetPoint" />
          </mxGeometry>
        </mxCell>
        <mxCell id="zs7TGqVESP4GtWaQI1Wk-12" value="Cod. Cupom" style="ellipse;whiteSpace=wrap;html=1;align=center;" parent="1" vertex="1">
          <mxGeometry x="516" y="-675.2" width="79" height="36" as="geometry" />
        </mxCell>
        <mxCell id="zs7TGqVESP4GtWaQI1Wk-18" value="Cupom Desconto" style="whiteSpace=wrap;html=1;align=center;" parent="1" vertex="1">
          <mxGeometry x="588" y="-624.5" width="110" height="36" as="geometry" />
        </mxCell>
        <mxCell id="zs7TGqVESP4GtWaQI1Wk-25" value="" style="endArrow=none;html=1;rounded=0;exitX=0.5;exitY=1;exitDx=0;exitDy=0;entryX=0.5;entryY=0;entryDx=0;entryDy=0;" parent="1" source="hniN_vU34hfQTDvHGKLZ-4" target="zs7TGqVESP4GtWaQI1Wk-18" edge="1">
          <mxGeometry relative="1" as="geometry">
            <mxPoint x="684.5" y="-640.5" as="sourcePoint" />
            <mxPoint x="637" y="-600.5" as="targetPoint" />
          </mxGeometry>
        </mxCell>
        <mxCell id="t6fumpsEY5M7Tml45VzL-2" value="Utiliza" style="shape=rhombus;perimeter=rhombusPerimeter;whiteSpace=wrap;html=1;align=center;" parent="1" vertex="1">
          <mxGeometry x="600" y="-531" width="100" height="61" as="geometry" />
        </mxCell>
        <mxCell id="t6fumpsEY5M7Tml45VzL-3" value="Valor Frete" style="retangule;whiteSpace=wrap;html=1;align=center;" parent="1" vertex="1">
          <mxGeometry x="801" y="-64" width="100" height="45" as="geometry" />
        </mxCell>
        <mxCell id="hniN_vU34hfQTDvHGKLZ-4" value="Descrição" style="ellipse;whiteSpace=wrap;html=1;align=center;" parent="1" vertex="1">
          <mxGeometry x="545.5" y="-727.2" width="79" height="36" as="geometry" />
        </mxCell>
        <mxCell id="hniN_vU34hfQTDvHGKLZ-5" value="Validade" style="ellipse;shape=doubleEllipse;margin=3;whiteSpace=wrap;html=1;align=center;" parent="1" vertex="1">
          <mxGeometry x="663" y="-722.5" width="73" height="36" as="geometry" />
        </mxCell>
        <mxCell id="hniN_vU34hfQTDvHGKLZ-6" value="Data Início" style="ellipse;whiteSpace=wrap;html=1;align=center;" parent="1" vertex="1">
          <mxGeometry x="614" y="-773.7" width="74" height="36" as="geometry" />
        </mxCell>
        <mxCell id="hniN_vU34hfQTDvHGKLZ-7" value="" style="endArrow=none;html=1;rounded=0;entryX=0.618;entryY=0.055;entryDx=0;entryDy=0;entryPerimeter=0;exitX=0.5;exitY=1;exitDx=0;exitDy=0;" parent="1" source="hniN_vU34hfQTDvHGKLZ-6" target="hniN_vU34hfQTDvHGKLZ-5" edge="1">
          <mxGeometry relative="1" as="geometry">
            <mxPoint x="736" y="-690.5" as="sourcePoint" />
            <mxPoint x="737" y="-668.5" as="targetPoint" />
          </mxGeometry>
        </mxCell>
        <mxCell id="hniN_vU34hfQTDvHGKLZ-9" value="Data Fim" style="ellipse;whiteSpace=wrap;html=1;align=center;" parent="1" vertex="1">
          <mxGeometry x="698" y="-777.2" width="76" height="36" as="geometry" />
        </mxCell>
        <mxCell id="hniN_vU34hfQTDvHGKLZ-11" value="" style="endArrow=none;html=1;rounded=0;entryX=0.604;entryY=0.016;entryDx=0;entryDy=0;entryPerimeter=0;exitX=0.377;exitY=0.969;exitDx=0;exitDy=0;exitPerimeter=0;" parent="1" source="hniN_vU34hfQTDvHGKLZ-9" target="hniN_vU34hfQTDvHGKLZ-5" edge="1">
          <mxGeometry relative="1" as="geometry">
            <mxPoint x="728.0310666540549" y="-710.9553894597454" as="sourcePoint" />
            <mxPoint x="776" y="-670.5" as="targetPoint" />
          </mxGeometry>
        </mxCell>
        <mxCell id="hniN_vU34hfQTDvHGKLZ-14" value="" style="endArrow=none;html=1;rounded=0;exitX=0;exitY=1;exitDx=0;exitDy=0;entryX=0.5;entryY=0;entryDx=0;entryDy=0;" parent="1" source="hniN_vU34hfQTDvHGKLZ-15" target="zs7TGqVESP4GtWaQI1Wk-18" edge="1">
          <mxGeometry relative="1" as="geometry">
            <mxPoint x="1049.5" y="-424" as="sourcePoint" />
            <mxPoint x="1234" y="-424" as="targetPoint" />
            <Array as="points" />
          </mxGeometry>
        </mxCell>
        <mxCell id="hniN_vU34hfQTDvHGKLZ-15" value="Nome" style="ellipse;whiteSpace=wrap;html=1;align=center;" parent="1" vertex="1">
          <mxGeometry x="771" y="-671.2" width="61" height="31" as="geometry" />
        </mxCell>
        <mxCell id="hniN_vU34hfQTDvHGKLZ-16" value="" style="endArrow=none;html=1;rounded=0;exitX=0;exitY=1;exitDx=0;exitDy=0;entryX=0.5;entryY=0;entryDx=0;entryDy=0;" parent="1" source="hniN_vU34hfQTDvHGKLZ-5" target="zs7TGqVESP4GtWaQI1Wk-18" edge="1">
          <mxGeometry relative="1" as="geometry">
            <mxPoint x="727" y="-640.5" as="sourcePoint" />
            <mxPoint x="656" y="-597.5" as="targetPoint" />
            <Array as="points" />
          </mxGeometry>
        </mxCell>
        <mxCell id="hniN_vU34hfQTDvHGKLZ-18" value="Valor" style="ellipse;whiteSpace=wrap;html=1;align=center;" parent="1" vertex="1">
          <mxGeometry x="701" y="-685.7" width="70" height="36" as="geometry" />
        </mxCell>
        <mxCell id="hniN_vU34hfQTDvHGKLZ-26" value="" style="fontSize=12;html=1;endArrow=ERzeroToMany;endFill=0;rounded=0;edgeStyle=orthogonalEdgeStyle;entryX=0;entryY=0.5;entryDx=0;entryDy=0;" parent="1" target="zs7TGqVESP4GtWaQI1Wk-18" edge="1">
          <mxGeometry width="100" height="100" relative="1" as="geometry">
            <mxPoint x="250" y="-606" as="sourcePoint" />
            <mxPoint x="676.5" y="-530" as="targetPoint" />
          </mxGeometry>
        </mxCell>
        <mxCell id="hniN_vU34hfQTDvHGKLZ-38" value="" style="endArrow=none;html=1;rounded=0;strokeColor=default;strokeWidth=1;startArrow=ERzeroToOne;startFill=0;exitX=1.023;exitY=0.18;exitDx=0;exitDy=0;exitPerimeter=0;" parent="1" target="t6fumpsEY5M7Tml45VzL-2" edge="1">
          <mxGeometry relative="1" as="geometry">
            <mxPoint x="649.3800000000001" y="-588.5999999999999" as="sourcePoint" />
            <mxPoint x="823" y="-244" as="targetPoint" />
            <Array as="points" />
          </mxGeometry>
        </mxCell>
        <mxCell id="hniN_vU34hfQTDvHGKLZ-49" value="" style="endArrow=none;html=1;rounded=0;exitX=0.5;exitY=1;exitDx=0;exitDy=0;entryX=1;entryY=0.5;entryDx=0;entryDy=0;" parent="1" source="hniN_vU34hfQTDvHGKLZ-50" target="zs7TGqVESP4GtWaQI1Wk-8" edge="1">
          <mxGeometry relative="1" as="geometry">
            <mxPoint x="1544" y="-460" as="sourcePoint" />
            <mxPoint x="1468" y="-460" as="targetPoint" />
            <Array as="points" />
          </mxGeometry>
        </mxCell>
        <mxCell id="hniN_vU34hfQTDvHGKLZ-107" style="rounded=0;orthogonalLoop=1;jettySize=auto;html=1;exitX=0.53;exitY=-0.038;exitDx=0;exitDy=0;entryX=0;entryY=1;entryDx=0;entryDy=0;endArrow=none;endFill=0;exitPerimeter=0;" parent="1" source="hniN_vU34hfQTDvHGKLZ-50" target="hniN_vU34hfQTDvHGKLZ-105" edge="1">
          <mxGeometry relative="1" as="geometry" />
        </mxCell>
        <mxCell id="hniN_vU34hfQTDvHGKLZ-111" style="rounded=0;orthogonalLoop=1;jettySize=auto;html=1;entryX=0.5;entryY=1;entryDx=0;entryDy=0;endArrow=none;endFill=0;exitX=0.537;exitY=0.012;exitDx=0;exitDy=0;exitPerimeter=0;" parent="1" source="hniN_vU34hfQTDvHGKLZ-50" target="hniN_vU34hfQTDvHGKLZ-106" edge="1">
          <mxGeometry relative="1" as="geometry">
            <mxPoint x="1256" y="-415" as="sourcePoint" />
            <mxPoint x="1207.3997332394779" y="-374.7698532817126" as="targetPoint" />
          </mxGeometry>
        </mxCell>
        <mxCell id="hniN_vU34hfQTDvHGKLZ-50" value="Forma de Pagamento" style="ellipse;shape=doubleEllipse;margin=3;whiteSpace=wrap;html=1;align=center;" parent="1" vertex="1">
          <mxGeometry x="1106" y="-360" width="140" height="45" as="geometry" />
        </mxCell>
        <mxCell id="hniN_vU34hfQTDvHGKLZ-53" value="Cadastra" style="shape=rhombus;perimeter=rhombusPerimeter;whiteSpace=wrap;html=1;align=center;" parent="1" vertex="1">
          <mxGeometry x="883" y="-445.5" width="80" height="50" as="geometry" />
        </mxCell>
        <mxCell id="hniN_vU34hfQTDvHGKLZ-76" style="rounded=0;orthogonalLoop=1;jettySize=auto;html=1;entryX=1;entryY=0;entryDx=0;entryDy=0;endArrow=none;endFill=0;" parent="1" target="hniN_vU34hfQTDvHGKLZ-67" edge="1">
          <mxGeometry relative="1" as="geometry">
            <mxPoint x="873" y="-518.5" as="sourcePoint" />
          </mxGeometry>
        </mxCell>
        <mxCell id="hniN_vU34hfQTDvHGKLZ-78" style="rounded=0;orthogonalLoop=1;jettySize=auto;html=1;exitX=0;exitY=0.25;exitDx=0;exitDy=0;entryX=1;entryY=1;entryDx=0;entryDy=0;endArrow=none;endFill=0;" parent="1" source="hniN_vU34hfQTDvHGKLZ-54" target="hniN_vU34hfQTDvHGKLZ-66" edge="1">
          <mxGeometry relative="1" as="geometry" />
        </mxCell>
        <mxCell id="hniN_vU34hfQTDvHGKLZ-79" style="rounded=0;orthogonalLoop=1;jettySize=auto;html=1;exitX=0.571;exitY=0.035;exitDx=0;exitDy=0;entryX=0.5;entryY=1;entryDx=0;entryDy=0;endArrow=none;endFill=0;exitPerimeter=0;" parent="1" source="hniN_vU34hfQTDvHGKLZ-54" target="hniN_vU34hfQTDvHGKLZ-69" edge="1">
          <mxGeometry relative="1" as="geometry" />
        </mxCell>
        <mxCell id="hniN_vU34hfQTDvHGKLZ-54" value="Cartão" style="whiteSpace=wrap;html=1;align=center;" parent="1" vertex="1">
          <mxGeometry x="872" y="-538.5" width="110" height="40" as="geometry" />
        </mxCell>
        <mxCell id="hniN_vU34hfQTDvHGKLZ-64" value="" style="fontSize=12;html=1;endArrow=ERzeroToMany;endFill=1;rounded=0;edgeStyle=orthogonalEdgeStyle;exitX=0.5;exitY=0;exitDx=0;exitDy=0;" parent="1" source="hniN_vU34hfQTDvHGKLZ-53" edge="1">
          <mxGeometry width="100" height="100" relative="1" as="geometry">
            <mxPoint x="923" y="-458.5" as="sourcePoint" />
            <mxPoint x="923" y="-498.5" as="targetPoint" />
          </mxGeometry>
        </mxCell>
        <mxCell id="hniN_vU34hfQTDvHGKLZ-66" value="Número" style="ellipse;whiteSpace=wrap;html=1;align=center;" parent="1" vertex="1">
          <mxGeometry x="771" y="-608.5" width="74" height="40" as="geometry" />
        </mxCell>
        <mxCell id="hniN_vU34hfQTDvHGKLZ-67" value="COD." style="ellipse;whiteSpace=wrap;html=1;align=center;fontStyle=4;" parent="1" vertex="1">
          <mxGeometry x="772" y="-509.5" width="61" height="40" as="geometry" />
        </mxCell>
        <mxCell id="hniN_vU34hfQTDvHGKLZ-68" value="Nome" style="ellipse;whiteSpace=wrap;html=1;align=center;" parent="1" vertex="1">
          <mxGeometry x="832" y="-636" width="71" height="35" as="geometry" />
        </mxCell>
        <mxCell id="hniN_vU34hfQTDvHGKLZ-69" value="Data&lt;br&gt;Validade" style="ellipse;whiteSpace=wrap;html=1;align=center;" parent="1" vertex="1">
          <mxGeometry x="912" y="-641" width="76" height="40" as="geometry" />
        </mxCell>
        <mxCell id="hniN_vU34hfQTDvHGKLZ-70" value="Crédito" style="ellipse;whiteSpace=wrap;html=1;align=center;" parent="1" vertex="1">
          <mxGeometry x="988" y="-668.5" width="74" height="40" as="geometry" />
        </mxCell>
        <mxCell id="hniN_vU34hfQTDvHGKLZ-71" value="Débito" style="ellipse;whiteSpace=wrap;html=1;align=center;" parent="1" vertex="1">
          <mxGeometry x="1062" y="-648.5" width="76" height="40" as="geometry" />
        </mxCell>
        <mxCell id="hniN_vU34hfQTDvHGKLZ-82" style="rounded=0;orthogonalLoop=1;jettySize=auto;html=1;exitX=1;exitY=0;exitDx=0;exitDy=0;entryX=0;entryY=1;entryDx=0;entryDy=0;endArrow=none;endFill=0;" parent="1" source="hniN_vU34hfQTDvHGKLZ-72" target="hniN_vU34hfQTDvHGKLZ-71" edge="1">
          <mxGeometry relative="1" as="geometry" />
        </mxCell>
        <mxCell id="hniN_vU34hfQTDvHGKLZ-83" style="rounded=0;orthogonalLoop=1;jettySize=auto;html=1;entryX=0.5;entryY=1;entryDx=0;entryDy=0;endArrow=none;endFill=0;" parent="1" target="hniN_vU34hfQTDvHGKLZ-70" edge="1">
          <mxGeometry relative="1" as="geometry">
            <mxPoint x="1022" y="-608.5" as="sourcePoint" />
          </mxGeometry>
        </mxCell>
        <mxCell id="hniN_vU34hfQTDvHGKLZ-72" value="Tipo" style="ellipse;shape=doubleEllipse;margin=3;whiteSpace=wrap;html=1;align=center;" parent="1" vertex="1">
          <mxGeometry x="985" y="-608.5" width="73" height="40" as="geometry" />
        </mxCell>
        <mxCell id="hniN_vU34hfQTDvHGKLZ-80" value="Código Segurança" style="ellipse;whiteSpace=wrap;html=1;align=center;fontStyle=0;strokeColor=default;verticalAlign=middle;" parent="1" vertex="1">
          <mxGeometry x="748" y="-563" width="85" height="50" as="geometry" />
        </mxCell>
        <mxCell id="hniN_vU34hfQTDvHGKLZ-84" value="0 ou N" style="text;html=1;align=center;verticalAlign=middle;resizable=0;points=[];autosize=1;strokeColor=none;fillColor=none;" parent="1" vertex="1">
          <mxGeometry x="920" y="-499.5" width="60" height="30" as="geometry" />
        </mxCell>
        <mxCell id="hniN_vU34hfQTDvHGKLZ-87" value="0 ou 1" style="text;html=1;align=center;verticalAlign=middle;resizable=0;points=[];autosize=1;strokeColor=none;fillColor=none;" parent="1" vertex="1">
          <mxGeometry x="595" y="-588.5" width="60" height="30" as="geometry" />
        </mxCell>
        <mxCell id="hniN_vU34hfQTDvHGKLZ-90" value="Valor Pago" style="ellipse;whiteSpace=wrap;html=1;align=center;" parent="1" vertex="1">
          <mxGeometry x="1254" y="-343" width="80" height="45" as="geometry" />
        </mxCell>
        <mxCell id="hniN_vU34hfQTDvHGKLZ-91" value="COD." style="ellipse;whiteSpace=wrap;html=1;align=center;fontStyle=4;" parent="1" vertex="1">
          <mxGeometry x="1194" y="-250" width="61" height="40" as="geometry" />
        </mxCell>
        <mxCell id="hniN_vU34hfQTDvHGKLZ-92" value="Status" style="ellipse;whiteSpace=wrap;html=1;align=center;" parent="1" vertex="1">
          <mxGeometry x="1246" y="-291" width="80" height="45" as="geometry" />
        </mxCell>
        <mxCell id="hniN_vU34hfQTDvHGKLZ-105" value="PIX" style="ellipse;whiteSpace=wrap;html=1;align=center;" parent="1" vertex="1">
          <mxGeometry x="1254" y="-415" width="80" height="45" as="geometry" />
        </mxCell>
        <mxCell id="hniN_vU34hfQTDvHGKLZ-106" value="Boleto" style="ellipse;whiteSpace=wrap;html=1;align=center;" parent="1" vertex="1">
          <mxGeometry x="1220" y="-467" width="80" height="45" as="geometry" />
        </mxCell>
        <mxCell id="hniN_vU34hfQTDvHGKLZ-115" value="1" style="text;html=1;align=center;verticalAlign=middle;resizable=0;points=[];autosize=1;strokeColor=none;fillColor=none;" parent="1" vertex="1">
          <mxGeometry x="724" y="-248" width="30" height="30" as="geometry" />
        </mxCell>
        <mxCell id="eqisS4YV4IFv1SAnbsgt-6" value="" style="endArrow=none;html=1;rounded=0;strokeColor=default;strokeWidth=1;startArrow=ERzeroToOne;startFill=0;exitX=0.5;exitY=0;exitDx=0;exitDy=0;" parent="1" source="t6fumpsEY5M7Tml45VzL-3" target="zs7TGqVESP4GtWaQI1Wk-7" edge="1">
          <mxGeometry relative="1" as="geometry">
            <mxPoint x="943" y="-99" as="sourcePoint" />
            <mxPoint x="869" y="-99" as="targetPoint" />
            <Array as="points" />
          </mxGeometry>
        </mxCell>
        <mxCell id="eqisS4YV4IFv1SAnbsgt-8" value="" style="endArrow=ERmandOne;html=1;rounded=0;exitX=0.5;exitY=0;exitDx=0;exitDy=0;startArrow=none;startFill=0;endFill=0;entryX=0.902;entryY=0.995;entryDx=0;entryDy=0;entryPerimeter=0;" parent="1" source="zs7TGqVESP4GtWaQI1Wk-7" target="WjwwnHzcMkBrjSKsb_c8-127" edge="1">
          <mxGeometry relative="1" as="geometry">
            <mxPoint x="805" y="-330" as="sourcePoint" />
            <mxPoint x="770" y="-220" as="targetPoint" />
            <Array as="points">
              <mxPoint x="852" y="-200" />
              <mxPoint x="730" y="-200" />
            </Array>
          </mxGeometry>
        </mxCell>
        <mxCell id="eqisS4YV4IFv1SAnbsgt-10" value="" style="endArrow=none;html=1;rounded=0;entryX=0.5;entryY=0;entryDx=0;entryDy=0;exitX=0;exitY=0;exitDx=0;exitDy=0;" parent="1" source="hniN_vU34hfQTDvHGKLZ-18" target="zs7TGqVESP4GtWaQI1Wk-18" edge="1">
          <mxGeometry relative="1" as="geometry">
            <mxPoint x="700" y="-660" as="sourcePoint" />
            <mxPoint x="652" y="-580.5" as="targetPoint" />
            <Array as="points" />
          </mxGeometry>
        </mxCell>
        <mxCell id="eqisS4YV4IFv1SAnbsgt-11" value="" style="endArrow=none;html=1;rounded=0;entryX=0.5;entryY=0;entryDx=0;entryDy=0;exitX=0.632;exitY=1.025;exitDx=0;exitDy=0;exitPerimeter=0;" parent="1" source="i0df7u659DcUU07UK3Iy-9" target="WjwwnHzcMkBrjSKsb_c8-119" edge="1">
          <mxGeometry relative="1" as="geometry">
            <mxPoint x="461.5999999999999" y="-499.79999999999995" as="sourcePoint" />
            <mxPoint x="450" y="-440" as="targetPoint" />
          </mxGeometry>
        </mxCell>
        <mxCell id="eqisS4YV4IFv1SAnbsgt-12" value="" style="endArrow=ERmandOne;html=1;rounded=0;entryX=1;entryY=0.5;entryDx=0;entryDy=0;endFill=0;exitX=0;exitY=0.5;exitDx=0;exitDy=0;" parent="1" source="hniN_vU34hfQTDvHGKLZ-53" edge="1">
          <mxGeometry relative="1" as="geometry">
            <mxPoint x="890" y="-420" as="sourcePoint" />
            <mxPoint x="555" y="-420" as="targetPoint" />
            <Array as="points" />
          </mxGeometry>
        </mxCell>
        <mxCell id="eqisS4YV4IFv1SAnbsgt-13" value="" style="endArrow=ERmandOne;html=1;rounded=0;entryX=0;entryY=0.5;entryDx=0;entryDy=0;endFill=0;exitX=1;exitY=0.5;exitDx=0;exitDy=0;" parent="1" source="i8sNkLa4TtplderQ5HwQ-2" target="zs7TGqVESP4GtWaQI1Wk-8" edge="1">
          <mxGeometry relative="1" as="geometry">
            <mxPoint x="1120" y="-90" as="sourcePoint" />
            <mxPoint x="1075" y="-200" as="targetPoint" />
            <Array as="points" />
          </mxGeometry>
        </mxCell>
        <mxCell id="eqisS4YV4IFv1SAnbsgt-14" value="0 ou 1" style="text;html=1;align=center;verticalAlign=middle;resizable=0;points=[];autosize=1;strokeColor=none;fillColor=none;" parent="1" vertex="1">
          <mxGeometry x="796" y="-89" width="60" height="30" as="geometry" />
        </mxCell>
        <mxCell id="eqisS4YV4IFv1SAnbsgt-15" value="1" style="text;html=1;align=center;verticalAlign=middle;resizable=0;points=[];autosize=1;strokeColor=none;fillColor=none;" parent="1" vertex="1">
          <mxGeometry x="1001" y="-298" width="30" height="30" as="geometry" />
        </mxCell>
        <mxCell id="i8sNkLa4TtplderQ5HwQ-2" value="Recebe" style="shape=rhombus;perimeter=rhombusPerimeter;whiteSpace=wrap;html=1;align=center;" vertex="1" parent="1">
          <mxGeometry x="856" y="-294" width="104" height="48" as="geometry" />
        </mxCell>
        <mxCell id="i8sNkLa4TtplderQ5HwQ-8" value="1" style="text;html=1;align=center;verticalAlign=middle;resizable=0;points=[];autosize=1;strokeColor=none;fillColor=none;" vertex="1" parent="1">
          <mxGeometry x="733" y="-298" width="30" height="30" as="geometry" />
        </mxCell>
        <mxCell id="i8sNkLa4TtplderQ5HwQ-9" value="Contém" style="shape=rhombus;perimeter=rhombusPerimeter;whiteSpace=wrap;html=1;align=center;" vertex="1" parent="1">
          <mxGeometry x="1018" y="-393.00000000000006" width="80" height="50" as="geometry" />
        </mxCell>
        <mxCell id="i8sNkLa4TtplderQ5HwQ-12" value="" style="endArrow=ERone;html=1;rounded=0;exitX=0.5;exitY=0;exitDx=0;exitDy=0;startArrow=none;startFill=0;endFill=0;entryX=1;entryY=0.5;entryDx=0;entryDy=0;" edge="1" parent="1" source="i8sNkLa4TtplderQ5HwQ-9" target="hniN_vU34hfQTDvHGKLZ-54">
          <mxGeometry relative="1" as="geometry">
            <mxPoint x="1451" y="-624.2" as="sourcePoint" />
            <mxPoint x="1329" y="-753.2" as="targetPoint" />
            <Array as="points">
              <mxPoint x="1060" y="-518" />
            </Array>
          </mxGeometry>
        </mxCell>
        <mxCell id="i8sNkLa4TtplderQ5HwQ-13" value="" style="endArrow=none;html=1;rounded=0;strokeColor=default;strokeWidth=1;startArrow=ERzeroToOne;startFill=0;entryX=0.5;entryY=1;entryDx=0;entryDy=0;" edge="1" parent="1" target="i8sNkLa4TtplderQ5HwQ-9">
          <mxGeometry relative="1" as="geometry">
            <mxPoint x="1057" y="-290" as="sourcePoint" />
            <mxPoint x="1338" y="-450.2" as="targetPoint" />
            <Array as="points" />
          </mxGeometry>
        </mxCell>
        <mxCell id="i8sNkLa4TtplderQ5HwQ-14" value="0 ou 1" style="text;html=1;align=center;verticalAlign=middle;resizable=0;points=[];autosize=1;strokeColor=none;fillColor=none;" vertex="1" parent="1">
          <mxGeometry x="1003" y="-317" width="60" height="30" as="geometry" />
        </mxCell>
        <mxCell id="i8sNkLa4TtplderQ5HwQ-15" value="1" style="text;html=1;align=center;verticalAlign=middle;resizable=0;points=[];autosize=1;strokeColor=none;fillColor=none;" vertex="1" parent="1">
          <mxGeometry x="973" y="-518.5" width="30" height="30" as="geometry" />
        </mxCell>
        <mxCell id="i8sNkLa4TtplderQ5HwQ-17" style="rounded=0;orthogonalLoop=1;jettySize=auto;html=1;exitX=0;exitY=0.25;exitDx=0;exitDy=0;entryX=1;entryY=0.5;entryDx=0;entryDy=0;endArrow=none;endFill=0;" edge="1" parent="1" source="hniN_vU34hfQTDvHGKLZ-54" target="hniN_vU34hfQTDvHGKLZ-80">
          <mxGeometry relative="1" as="geometry">
            <mxPoint x="882" y="-528.5" as="sourcePoint" />
            <mxPoint x="844" y="-564.5" as="targetPoint" />
          </mxGeometry>
        </mxCell>
        <mxCell id="i8sNkLa4TtplderQ5HwQ-18" style="rounded=0;orthogonalLoop=1;jettySize=auto;html=1;entryX=0.5;entryY=1;entryDx=0;entryDy=0;endArrow=none;endFill=0;" edge="1" parent="1" target="hniN_vU34hfQTDvHGKLZ-68">
          <mxGeometry relative="1" as="geometry">
            <mxPoint x="927" y="-538.5" as="sourcePoint" />
            <mxPoint x="960" y="-590.5" as="targetPoint" />
          </mxGeometry>
        </mxCell>
        <mxCell id="i8sNkLa4TtplderQ5HwQ-19" style="rounded=0;orthogonalLoop=1;jettySize=auto;html=1;exitX=0.585;exitY=-0.025;exitDx=0;exitDy=0;entryX=0.068;entryY=0.705;entryDx=0;entryDy=0;endArrow=none;endFill=0;entryPerimeter=0;exitPerimeter=0;" edge="1" parent="1" source="hniN_vU34hfQTDvHGKLZ-54" target="hniN_vU34hfQTDvHGKLZ-72">
          <mxGeometry relative="1" as="geometry">
            <mxPoint x="937" y="-528.5" as="sourcePoint" />
            <mxPoint x="878" y="-590.5" as="targetPoint" />
          </mxGeometry>
        </mxCell>
        <mxCell id="i8sNkLa4TtplderQ5HwQ-20" value="" style="endArrow=ERmandOne;html=1;rounded=0;exitX=0;exitY=0.5;exitDx=0;exitDy=0;startArrow=none;startFill=0;endFill=0;entryX=1;entryY=0.5;entryDx=0;entryDy=0;" edge="1" parent="1" source="i8sNkLa4TtplderQ5HwQ-2" target="WjwwnHzcMkBrjSKsb_c8-127">
          <mxGeometry relative="1" as="geometry">
            <mxPoint x="1090" y="-580" as="sourcePoint" />
            <mxPoint x="769" y="-580" as="targetPoint" />
            <Array as="points" />
          </mxGeometry>
        </mxCell>
        <mxCell id="i8sNkLa4TtplderQ5HwQ-26" style="rounded=0;orthogonalLoop=1;jettySize=auto;html=1;entryX=0.5;entryY=1;entryDx=0;entryDy=0;endArrow=none;endFill=0;exitX=0.551;exitY=-0.01;exitDx=0;exitDy=0;exitPerimeter=0;" edge="1" target="i8sNkLa4TtplderQ5HwQ-27" parent="1" source="hniN_vU34hfQTDvHGKLZ-50">
          <mxGeometry relative="1" as="geometry">
            <mxPoint x="1141" y="-384" as="sourcePoint" />
            <mxPoint x="1157.3997332394779" y="-398.7698532817126" as="targetPoint" />
          </mxGeometry>
        </mxCell>
        <mxCell id="i8sNkLa4TtplderQ5HwQ-27" value="Cartão Crédito" style="ellipse;whiteSpace=wrap;html=1;align=center;" vertex="1" parent="1">
          <mxGeometry x="1140" y="-493.5" width="80" height="45" as="geometry" />
        </mxCell>
        <mxCell id="i8sNkLa4TtplderQ5HwQ-28" value="Cartão &lt;br&gt;Débito" style="ellipse;whiteSpace=wrap;html=1;align=center;" vertex="1" parent="1">
          <mxGeometry x="1088" y="-448.5" width="80" height="45" as="geometry" />
        </mxCell>
        <mxCell id="i8sNkLa4TtplderQ5HwQ-29" style="rounded=0;orthogonalLoop=1;jettySize=auto;html=1;entryX=0.5;entryY=1;entryDx=0;entryDy=0;endArrow=none;endFill=0;exitX=0.53;exitY=-0.017;exitDx=0;exitDy=0;exitPerimeter=0;" edge="1" target="i8sNkLa4TtplderQ5HwQ-28" parent="1" source="hniN_vU34hfQTDvHGKLZ-50">
          <mxGeometry relative="1" as="geometry">
            <mxPoint x="1162" y="-335" as="sourcePoint" />
            <mxPoint x="1105.3997332394779" y="-375.7698532817126" as="targetPoint" />
          </mxGeometry>
        </mxCell>
        <mxCell id="i8sNkLa4TtplderQ5HwQ-31" value="" style="edgeStyle=orthogonalEdgeStyle;fontSize=12;html=1;endArrow=ERmandOne;rounded=0;exitX=0;exitY=0.5;exitDx=0;exitDy=0;" edge="1" parent="1" source="i8sNkLa4TtplderQ5HwQ-33">
          <mxGeometry width="100" height="100" relative="1" as="geometry">
            <mxPoint x="130" y="-600" as="sourcePoint" />
            <mxPoint x="120" y="-440" as="targetPoint" />
            <Array as="points">
              <mxPoint x="120" y="-606" />
              <mxPoint x="120" y="-440" />
            </Array>
          </mxGeometry>
        </mxCell>
        <mxCell id="i8sNkLa4TtplderQ5HwQ-32" value="1" style="text;html=1;align=center;verticalAlign=middle;resizable=0;points=[];autosize=1;strokeColor=none;fillColor=none;" vertex="1" parent="1">
          <mxGeometry x="115" y="-475" width="30" height="30" as="geometry" />
        </mxCell>
        <mxCell id="i8sNkLa4TtplderQ5HwQ-33" value="Cadastra" style="shape=rhombus;perimeter=rhombusPerimeter;whiteSpace=wrap;html=1;align=center;" vertex="1" parent="1">
          <mxGeometry x="130" y="-636.2" width="120" height="60" as="geometry" />
        </mxCell>
        <mxCell id="i8sNkLa4TtplderQ5HwQ-34" value="0 ou N" style="text;html=1;align=center;verticalAlign=middle;resizable=0;points=[];autosize=1;strokeColor=none;fillColor=none;" vertex="1" parent="1">
          <mxGeometry x="530" y="-606.2" width="60" height="30" as="geometry" />
        </mxCell>
        <mxCell id="i8sNkLa4TtplderQ5HwQ-40" value="" style="endArrow=ERone;html=1;rounded=0;startArrow=none;startFill=0;endFill=0;entryX=0.539;entryY=1.1;entryDx=0;entryDy=0;entryPerimeter=0;exitX=0;exitY=0.5;exitDx=0;exitDy=0;" edge="1" parent="1" source="t6fumpsEY5M7Tml45VzL-2">
          <mxGeometry relative="1" as="geometry">
            <mxPoint x="542.66" y="-619" as="sourcePoint" />
            <mxPoint x="540.0000000000001" y="-440" as="targetPoint" />
            <Array as="points">
              <mxPoint x="540" y="-500" />
            </Array>
          </mxGeometry>
        </mxCell>
        <mxCell id="i8sNkLa4TtplderQ5HwQ-41" value="1" style="text;html=1;align=center;verticalAlign=middle;resizable=0;points=[];autosize=1;strokeColor=none;fillColor=none;" vertex="1" parent="1">
          <mxGeometry x="535" y="-467" width="30" height="30" as="geometry" />
        </mxCell>
        <mxCell id="i8sNkLa4TtplderQ5HwQ-42" value="Cupom Desconto" style="ellipse;whiteSpace=wrap;html=1;align=center;" vertex="1" parent="1">
          <mxGeometry x="690" y="-360" width="70" height="40" as="geometry" />
        </mxCell>
        <mxCell id="i8sNkLa4TtplderQ5HwQ-43" value="" style="endArrow=none;html=1;rounded=0;entryX=0.644;entryY=-0.034;entryDx=0;entryDy=0;entryPerimeter=0;exitX=0.419;exitY=0.985;exitDx=0;exitDy=0;exitPerimeter=0;" edge="1" parent="1" source="i8sNkLa4TtplderQ5HwQ-42" target="WjwwnHzcMkBrjSKsb_c8-127">
          <mxGeometry relative="1" as="geometry">
            <mxPoint x="666" y="-295" as="sourcePoint" />
            <mxPoint x="668" y="-281" as="targetPoint" />
          </mxGeometry>
        </mxCell>
        <mxCell id="i8sNkLa4TtplderQ5HwQ-44" value="1" style="text;html=1;align=center;verticalAlign=middle;resizable=0;points=[];autosize=1;strokeColor=none;fillColor=none;" vertex="1" parent="1">
          <mxGeometry x="556" y="-446" width="30" height="30" as="geometry" />
        </mxCell>
        <mxCell id="i8sNkLa4TtplderQ5HwQ-45" value="1" style="text;html=1;align=center;verticalAlign=middle;resizable=0;points=[];autosize=1;strokeColor=none;fillColor=none;" vertex="1" parent="1">
          <mxGeometry x="500" y="-400" width="30" height="30" as="geometry" />
        </mxCell>
      </root>
    </mxGraphModel>
  </diagram>
</mxfile>
